<?xml version="1.0" encoding="UTF-8" standalone="no"?>
<!DOCTYPE svg PUBLIC "-//W3C//DTD SVG 1.0//EN" "http://www.w3.org/TR/2001/PR-SVG-20010719/DTD/svg10.dtd">
<svg width="37cm" height="13cm" viewBox="185 199 729 255" xmlns="http://www.w3.org/2000/svg" xmlns:xlink="http://www.w3.org/1999/xlink">
  <g>
    <rect style="fill: none; fill-opacity:0; stroke-width: 2; stroke: #1e90ff" x="531" y="242" width="383" height="208.398"/>
    <image x="532" y="243" width="381" height="206.398" xlink:href="file:///home/pingu/sandbox/birdhouse/birdhouse-docs/diagrams/ensemble_robustness.png"/>
  </g>
  <g>
    <rect style="fill: #1e90ff" x="672.5" y="202" width="99" height="38"/>
    <rect style="fill: none; fill-opacity:0; stroke-width: 2.35099e-37; stroke: #1e90ff" x="672.5" y="202" width="99" height="38"/>
    <text font-size="12.8" style="fill: #ffffff;text-anchor:middle;font-family:sans-serif;font-style:normal;font-weight:normal" x="722" y="224.9">
      <tspan x="722" y="224.9">WPS Output</tspan>
    </text>
  </g>
  <g>
    <rect style="fill: #1e90ff" x="230.15" y="199" width="87.7" height="38"/>
    <rect style="fill: none; fill-opacity:0; stroke-width: 2.35099e-37; stroke: #1e90ff" x="230.15" y="199" width="87.7" height="38"/>
    <text font-size="12.8" style="fill: #ffffff;text-anchor:middle;font-family:sans-serif;font-style:normal;font-weight:normal" x="274" y="221.9">
      <tspan x="274" y="221.9">WPS Input</tspan>
    </text>
  </g>
  <g>
    <rect style="fill: #ffffff" x="187.125" y="382" width="171.875" height="70"/>
    <rect style="fill: none; fill-opacity:0; stroke-width: 2; stroke: #1e90ff" x="187.125" y="382" width="171.875" height="70"/>
    <text font-size="12.8" style="fill: #000000;text-anchor:start;font-family:sans-serif;font-style:normal;font-weight:normal" x="196.125" y="404.9">
      <tspan x="196.125" y="404.9">StartYear=1991</tspan>
      <tspan x="196.125" y="420.9">EndYear=2005</tspan>
      <tspan x="196.125" y="436.9">Variable=tas</tspan>
    </text>
  </g>
  <g>
    <rect style="fill: none; fill-opacity:0; stroke-width: 2; stroke: #1e90ff" x="186" y="241" width="81" height="63.7524"/>
    <image x="187" y="242" width="79" height="61.7524" xlink:href="file:///home/pingu/sandbox/birdhouse/birdhouse-docs/diagrams/tas-1.png"/>
  </g>
  <g>
    <rect style="fill: none; fill-opacity:0; stroke-width: 2; stroke: #1e90ff" x="279.2" y="240.8" width="81" height="63.8059"/>
    <image x="280.2" y="241.8" width="79" height="61.8059" xlink:href="file:///home/pingu/sandbox/birdhouse/birdhouse-docs/diagrams/tas-2.png"/>
  </g>
  <g>
    <rect style="fill: none; fill-opacity:0; stroke-width: 2; stroke: #1e90ff" x="186.4" y="311.6" width="81" height="63.5645"/>
    <image x="187.4" y="312.6" width="79" height="61.5645" xlink:href="file:///home/pingu/sandbox/birdhouse/birdhouse-docs/diagrams/tas-3.png"/>
  </g>
  <g>
    <rect style="fill: none; fill-opacity:0; stroke-width: 2; stroke: #1e90ff" x="278.6" y="312.4" width="81" height="63.5303"/>
    <image x="279.6" y="313.4" width="79" height="61.5303" xlink:href="file:///home/pingu/sandbox/birdhouse/birdhouse-docs/diagrams/tas-4.png"/>
  </g>
  <g>
    <rect style="fill: #fed623" x="396" y="312" width="93.4" height="68" rx="20" ry="20"/>
    <rect style="fill: none; fill-opacity:0; stroke-width: 2; stroke: #000000" x="396" y="312" width="93.4" height="68" rx="20" ry="20"/>
    <text font-size="12.8" style="fill: #000000;text-anchor:middle;font-family:sans-serif;font-style:normal;font-weight:normal" x="442.7" y="333.9">
      <tspan x="442.7" y="333.9">Ensemble</tspan>
      <tspan x="442.7" y="349.9">Robustness</tspan>
      <tspan x="442.7" y="365.9">WPS</tspan>
    </text>
  </g>
  <g>
    <line style="fill: none; fill-opacity:0; stroke-width: 2; stroke: #000000" x1="358.6" y1="344.166" x2="383.27" y2="343.33"/>
    <polygon style="fill: #000000" points="390.765,343.076 380.94,348.412 383.27,343.33 380.602,338.417 "/>
    <polygon style="fill: none; fill-opacity:0; stroke-width: 2; stroke: #000000" points="390.765,343.076 380.94,348.412 383.27,343.33 380.602,338.417 "/>
  </g>
  <g>
    <line style="fill: none; fill-opacity:0; stroke-width: 2; stroke: #000000" x1="495.234" y1="346.782" x2="522.265" y2="346.354"/>
    <polygon style="fill: #000000" points="529.764,346.235 519.845,351.393 522.265,346.354 519.686,341.394 "/>
    <polygon style="fill: none; fill-opacity:0; stroke-width: 2; stroke: #000000" points="529.764,346.235 519.845,351.393 522.265,346.354 519.686,341.394 "/>
  </g>
</svg>
